<svg xmlns="http://www.w3.org/2000/svg"
     width="64"
     height="64"
     fill="context-fill"
     fill-opacity="context-fill-opacity"
     viewBox="0 0 64 64">
  <path
     d="M 3.023622,63.65956 C 2.4692912,63.422128 1.5622046,62.708296 1.007874,62.073265 0.02539285,60.947753 0,60.187539 0,31.899443 V 2.8802232 L 1.3972798,1.4401104 2.7945598,-2.0636878e-6 H 32 61.205442 L 62.602719,1.4401104 64,2.8802232 V 31.942169 61.004117 l -1.397019,1.440108 -1.39702,1.440114 -28.587234,0.103462 C 16.89575,64.0447 3.5779527,63.896997 3.023622,63.65956 Z M 16.881889,42.329866 V 24.151396 H 10.330708 3.7795273 v 16.394769 c 0,10.734376 0.1876869,16.756212 0.5436158,17.44166 0.8886037,1.711269 3.388507,2.478234 8.1492979,2.500184 l 4.409448,0.02031 z m 40.542555,17.443365 c 0.938863,-0.404309 1.952054,-1.206977 2.251529,-1.783703 0.307172,-0.591558 0.544497,-3.893195 0.544497,-7.57505 V 43.888021 H 41.070867 21.921259 v 8.310159 8.310157 h 16.898074 c 13.431274,0 17.248289,-0.150813 18.605111,-0.735106 z M 60.22047,31.422783 V 24.151396 H 41.070867 21.921259 v 6.925131 c 0,3.808822 0.151182,7.080947 0.335959,7.271388 0.184776,0.190441 8.802099,0.346258 19.149606,0.346258 H 60.22047 Z m 0,-18.472308 c 0,-3.3098037 -0.244488,-6.4779067 -0.544497,-7.0556663 C 58.423362,3.4825411 57.252717,3.3759997 32,3.3759997 6.7472839,3.3759997 5.5766354,3.4825411 4.3240271,5.8948087 4.0240163,6.4725683 3.7795273,9.6406713 3.7795273,12.950476 v 6.007071 H 32 60.22047 Z"
     fill="forestgreen" />
</svg>
